<?xml version="1.0" encoding="utf-8"?>
<!-- Generator: Adobe Illustrator 21.1.0, SVG Export Plug-In . SVG Version: 6.00 Build 0)  -->
<svg version="1.1" id="Layer_1" xmlns="http://www.w3.org/2000/svg" xmlns:xlink="http://www.w3.org/1999/xlink" x="0" y="0" viewBox="0 0 310 551" width="310" height="551" style="enable-background:new 0 0 310 551;" xml:space="preserve">
<style type="text/css">
	.st0{display:none;}
	.st1{display:inline;fill:#5BFF3F;}
	.st2{fill:none;}
	.st3{opacity:0.1;fill:url(#SVGID_1_);enable-background:new    ;}
	.st4{opacity:6.000000e-02;fill:url(#SVGID_2_);enable-background:new    ;}
	.st5{opacity:6.000000e-02;fill:url(#SVGID_3_);enable-background:new    ;}
	.st6{opacity:2.000000e-02;fill:url(#SVGID_4_);enable-background:new    ;}
	.st7{opacity:0.1;fill:url(#SVGID_5_);enable-background:new    ;}
	.st8{opacity:0.1;fill:url(#SVGID_6_);enable-background:new    ;}
	.st9{opacity:0.12;fill:url(#SVGID_7_);enable-background:new    ;}
	.st10{opacity:0.1;fill:url(#SVGID_8_);enable-background:new    ;}
	.st11{opacity:0.1;fill:url(#SVGID_9_);enable-background:new    ;}
	.st12{opacity:2.000000e-02;fill:url(#SVGID_10_);enable-background:new    ;}
	.st13{opacity:0.1;fill:url(#SVGID_11_);enable-background:new    ;}
	.st14{opacity:0.1;fill:#070707;enable-background:new    ;}
	.st15{fill:#F594FF;}
	.st16{opacity:0.1;fill:url(#SVGID_12_);enable-background:new    ;}
	.st17{opacity:0.15;fill:#070707;enable-background:new    ;}
	.st18{opacity:0.1;fill:url(#SVGID_13_);enable-background:new    ;}
	.st19{opacity:5.000000e-02;fill:url(#SVGID_14_);enable-background:new    ;}
	.st20{opacity:0.35;fill:url(#SVGID_15_);enable-background:new    ;}
	.st21{opacity:0.4;fill:url(#SVGID_16_);enable-background:new    ;}
</style>
<g id="Layer_4">
</g>
<g id="Layer_5" class="st0">
	<rect x="-0.1" y="551.3" class="st1" width="310.1" height="551.5"/>
</g>
<g id="Layer_1_1_">
</g>
<g id="Layer_3">
</g>
<g id="Layer_2">
	
		<rect x="30.7" y="220.2" transform="matrix(0.7071 -0.7072 0.7072 0.7071 -136.8172 112.0902)" class="st2" width="72.3" height="2"/>
	
		<rect x="119" y="399.8" transform="matrix(0.7071 -0.7071 0.7071 0.7071 -236.4771 232.9201)" class="st2" width="87.8" height="4.3"/>
	<polygon class="st2" points="198.8,256.5 -0.1,455.4 -0.1,508.8 310,198.6 310,87.3 169.8,227.6 	"/>
	
		<linearGradient id="SVGID_1_" gradientUnits="userSpaceOnUse" x1="-273.3901" y1="679.9485" x2="-371.3796" y2="834.4042" gradientTransform="matrix(1.0515 0.5232 -0.5232 -1.0515 806.5408 1288.1976)">
		<stop  offset="0" style="stop-color:#161412;stop-opacity:0.95"/>
		<stop  offset="0.2023" style="stop-color:#161412;stop-opacity:0.6512"/>
		<stop  offset="0.4256" style="stop-color:#161412;stop-opacity:0"/>
	</linearGradient>
	<polygon class="st3" points="169.8,227.6 -0.1,397.5 -0.1,455.4 198.8,256.5 	"/>
	
		<linearGradient id="SVGID_2_" gradientUnits="userSpaceOnUse" x1="-246.3072" y1="697.1304" x2="-344.2967" y2="851.586" gradientTransform="matrix(1.0515 0.5232 -0.5232 -1.0515 806.5408 1288.1976)">
		<stop  offset="0" style="stop-color:#161412;stop-opacity:0.95"/>
		<stop  offset="0.2023" style="stop-color:#161412;stop-opacity:0.6512"/>
		<stop  offset="0.4256" style="stop-color:#161412;stop-opacity:0"/>
	</linearGradient>
	<polygon class="st4" points="155.1,212.6 -0.1,367.8 -0.1,397.5 169.8,227.6 	"/>
	
		<linearGradient id="SVGID_3_" gradientUnits="userSpaceOnUse" x1="-232.3315" y1="705.9968" x2="-330.321" y2="860.4525" gradientTransform="matrix(1.0515 0.5232 -0.5232 -1.0515 806.5408 1288.1976)">
		<stop  offset="0" style="stop-color:#161412;stop-opacity:0.95"/>
		<stop  offset="0.2023" style="stop-color:#161412;stop-opacity:0.6512"/>
		<stop  offset="0.4256" style="stop-color:#161412;stop-opacity:0"/>
	</linearGradient>
	<polygon class="st5" points="128.9,186.6 -0.1,315.6 -0.1,367.8 155.1,212.6 	"/>
	
		<linearGradient id="SVGID_4_" gradientUnits="userSpaceOnUse" x1="-68.7218" y1="152.9041" x2="369.803" y2="152.9041" gradientTransform="matrix(0.9502 3.949928e-02 -3.949928e-02 -0.9502 -5.3528 419.3368)">
		<stop  offset="0" style="stop-color:#1D1D1B"/>
		<stop  offset="1" style="stop-color:#424242"/>
	</linearGradient>
	<polygon class="st6" points="128.9,186.6 -0.1,315.6 -0.1,367.8 155.1,212.6 	"/>
	
		<linearGradient id="SVGID_5_" gradientUnits="userSpaceOnUse" x1="178.2769" y1="398.85" x2="341.0083" y2="398.85" gradientTransform="matrix(1 0 0 -1 0 553.5)">
		<stop  offset="0" style="stop-color:#1D1D1B"/>
		<stop  offset="1" style="stop-color:#424242"/>
	</linearGradient>
	<polygon class="st7" points="198.8,205.9 302.8,101.8 304.5,103.3 200.3,207.4 	"/>
	
		<rect x="30.7" y="220.2" transform="matrix(0.7071 -0.7072 0.7072 0.7071 -136.8172 112.0902)" class="st2" width="72.3" height="2"/>
	
		<linearGradient id="SVGID_6_" gradientUnits="userSpaceOnUse" x1="-23.8916" y1="422.4304" x2="161.9502" y2="497.5153" gradientTransform="matrix(1 0 0 -1 0 553.5)">
		<stop  offset="0" style="stop-color:#161412;stop-opacity:0.95"/>
		<stop  offset="0.1482" style="stop-color:#161412;stop-opacity:0.6512"/>
		<stop  offset="0.5931" style="stop-color:#161412;stop-opacity:0"/>
	</linearGradient>
	<polygon class="st8" points="-0.1,188.9 153.6,35.3 122.6,4.3 -0.1,127.1 	"/>
	
		<linearGradient id="SVGID_7_" gradientUnits="userSpaceOnUse" x1="-7.475" y1="163.475" x2="317.475" y2="488.425" gradientTransform="matrix(1 0 0 -1 0 553.5)">
		<stop  offset="0" style="stop-color:#000000"/>
		<stop  offset="0.5351" style="stop-color:#000000;stop-opacity:0"/>
		<stop  offset="1" style="stop-color:#000000;stop-opacity:0.8946"/>
	</linearGradient>
	<polygon class="st9" points="155.1,212.6 -0.1,367.8 -0.1,397.5 169.8,227.6 310,87.3 310,57.7 	"/>
	
		<rect x="30.7" y="220.2" transform="matrix(0.7071 -0.7072 0.7072 0.7071 -136.8172 112.0902)" class="st2" width="72.3" height="2"/>
	
		<linearGradient id="SVGID_8_" gradientUnits="userSpaceOnUse" x1="13.2655" y1="522.3" x2="96.5398" y2="522.3" gradientTransform="matrix(1 0 0 -1 0 553.5)">
		<stop  offset="0" style="stop-color:#161412;stop-opacity:0.95"/>
		<stop  offset="0.3374" style="stop-color:#161412;stop-opacity:0.6512"/>
		<stop  offset="1" style="stop-color:#161412;stop-opacity:0"/>
	</linearGradient>
	<polygon class="st10" points="81.8,4.9 30.6,56 32,57.5 83.1,6.3 	"/>
	<polygon class="st2" points="-0.1,77.9 -0.1,77.9 78.1,-0.3 78.1,-0.3 	"/>
	
		<linearGradient id="SVGID_9_" gradientUnits="userSpaceOnUse" x1="-102.5248" y1="276.3" x2="388.7564" y2="276.3" gradientTransform="matrix(1 0 0 -1 0 553.5)">
		<stop  offset="0" style="stop-color:#161412;stop-opacity:0.95"/>
		<stop  offset="0.3374" style="stop-color:#161412;stop-opacity:0.6512"/>
		<stop  offset="1" style="stop-color:#161412;stop-opacity:0"/>
	</linearGradient>
	<polygon class="st11" points="-0.1,315.6 -0.1,367.8 155.1,212.6 128.9,186.6 	"/>
	
		<linearGradient id="SVGID_10_" gradientUnits="userSpaceOnUse" x1="-68.7218" y1="270.2738" x2="369.803" y2="270.2738" gradientTransform="matrix(0.9502 3.949928e-02 -3.949928e-02 -0.9502 -5.3528 419.3368)">
		<stop  offset="0" style="stop-color:#1D1D1B"/>
		<stop  offset="1" style="stop-color:#424242"/>
	</linearGradient>
	<polygon class="st12" points="-0.1,309.5 -0.1,315.6 128.9,186.6 155.1,212.6 310,57.7 310,45.8 286.8,22.6 	"/>
	
		<linearGradient id="SVGID_11_" gradientUnits="userSpaceOnUse" x1="-102.5248" y1="384.35" x2="388.7564" y2="384.35" gradientTransform="matrix(1 0 0 -1 0 553.5)">
		<stop  offset="0" style="stop-color:#161412;stop-opacity:0.95"/>
		<stop  offset="0.3374" style="stop-color:#161412;stop-opacity:0.6512"/>
		<stop  offset="1" style="stop-color:#161412;stop-opacity:0"/>
	</linearGradient>
	<polygon class="st13" points="-0.1,309.5 -0.1,315.6 128.9,186.6 155.1,212.6 310,57.7 310,45.8 286.8,22.6 	"/>
	<polygon class="st14" points="-0.1,-0.3 -0.1,77.9 78.1,-0.3 	"/>
	<polygon class="st15" points="124.3,-0.3 124.3,-0.3 124.6,-0.3 124.6,-0.3 	"/>
	<ellipse class="st15" cx="124.2" cy="-0.3" rx="0" ry="0"/>
	
		<rect x="109.6" y="379.1" transform="matrix(0.707 -0.7072 0.7072 0.707 -215.1816 240.9101)" class="st2" width="147.2" height="2.2"/>
	<path class="st2" d="M247.9,551.3l62.1-62.1v-66.9l-128.9,129H247.9z M248.1,495.4l-51.1,51.2l-1.4-1.4l51.1-51.1L248.1,495.4z"/>
	
		<linearGradient id="SVGID_12_" gradientUnits="userSpaceOnUse" x1="-3296.7859" y1="3723.7678" x2="-2858.261" y2="3723.7678" gradientTransform="matrix(-1.0186 -0.1416 0.1416 1.0186 -3500.9868 -3778.6846)">
		<stop  offset="0" style="stop-color:#161412;stop-opacity:0.95"/>
		<stop  offset="0.2023" style="stop-color:#161412;stop-opacity:0.6512"/>
		<stop  offset="0.4256" style="stop-color:#161412;stop-opacity:0"/>
	</linearGradient>
	<polygon class="st16" points="181.1,551.3 181.1,551.3 310,422.4 310,364.5 123.3,551.3 	"/>
	<polygon class="st17" points="310,551.3 310,489.1 247.9,551.3 	"/>
	<path class="st14" d="M78.1,551.3l29.4-29.4l0,0L310,319.3V198.6L-0.1,508.8v42.5H78.1L78.1,551.3z M234.4,327.4l1.5,1.5L131.8,433
		l-1.5-1.5L234.4,327.4z"/>
	
		<linearGradient id="SVGID_13_" gradientUnits="userSpaceOnUse" x1="178.1339" y1="33.25" x2="261.4083" y2="33.25" gradientTransform="matrix(1 0 0 -1 0 553.5)">
		<stop  offset="0" style="stop-color:#161412;stop-opacity:0.95"/>
		<stop  offset="0.3374" style="stop-color:#161412;stop-opacity:0.6512"/>
		<stop  offset="1" style="stop-color:#161412;stop-opacity:0"/>
	</linearGradient>
	<polygon class="st18" points="196.9,546.5 248.1,495.4 246.6,494 195.6,545 	"/>
	
		<linearGradient id="SVGID_14_" gradientUnits="userSpaceOnUse" x1="-3296.7859" y1="3697.2666" x2="-2858.261" y2="3697.2666" gradientTransform="matrix(-1.0186 -0.1416 0.1416 1.0186 -3500.9868 -3778.6846)">
		<stop  offset="0" style="stop-color:#161412;stop-opacity:0.95"/>
		<stop  offset="0.2023" style="stop-color:#161412;stop-opacity:0.6512"/>
		<stop  offset="0.4256" style="stop-color:#161412;stop-opacity:0"/>
	</linearGradient>
	<polygon class="st19" points="130.1,544.3 310,364.5 310,319.4 107.5,521.8 	"/>
	
		<linearGradient id="SVGID_15_" gradientUnits="userSpaceOnUse" x1="143.2801" y1="273.4078" x2="270.8215" y2="-0.1055" gradientTransform="matrix(1 0 0 -1 0 553.5)">
		<stop  offset="0" style="stop-color:#161412;stop-opacity:0.95"/>
		<stop  offset="0.3753" style="stop-color:#161412;stop-opacity:0.6512"/>
		<stop  offset="0.6526" style="stop-color:#161412;stop-opacity:0"/>
	</linearGradient>
	<polygon class="st20" points="130.1,544.3 310,364.5 310,319.4 107.5,521.8 	"/>
	<path class="st14" d="M107.5,521.8L310,319.4L107.5,521.8z"/>
	
		<linearGradient id="SVGID_16_" gradientUnits="userSpaceOnUse" x1="143.2801" y1="273.4078" x2="270.8215" y2="-0.1055" gradientTransform="matrix(1 0 0 -1 0 553.5)">
		<stop  offset="0" style="stop-color:#161412;stop-opacity:0.95"/>
		<stop  offset="0.3753" style="stop-color:#161412;stop-opacity:0.6512"/>
		<stop  offset="0.6526" style="stop-color:#161412;stop-opacity:0"/>
	</linearGradient>
	<path class="st21" d="M107.5,521.8L310,319.4L107.5,521.8z"/>
	
		<rect x="30.7" y="220.2" transform="matrix(0.7071 -0.7072 0.7072 0.7071 -136.8172 112.0902)" class="st2" width="72.3" height="2"/>
	<polygon class="st2" points="206.8,38.5 201.3,38.5 201.3,45.8 201.9,45.8 206.8,41.2 	"/>
	<path class="st17" d="M248.1-0.3l-41.4,41.4l-4.7,4.7L-0.1,247.9v61.7L237.6,71.9l49.3-49.3L310,45.8V-0.3H248.1z M42,247.4
		l-1.4-1.4L91.7,195l1.4,1.4L42,247.4z"/>
</g>
</svg>
