<svg xmlns="http://www.w3.org/2000/svg" viewBox="0 0 59.93 60">
  <defs>
    <style>
      .cls-1 {
        fill: #fff;
      }
    </style>
  </defs>
  <g id="logo_sd_logo_white" transform="translate(-1139 -9014)">
    <g id="Logo_1_" transform="translate(1139 9014)">
      <path id="circle_1_" class="cls-1" d="M57.449,17.132c.484.331.994.663,1.453,1.02-1.657.637-3.288,1.274-4.919,1.886-.127-.841-.255-1.708-.382-2.549-3.059-.739-6.168-1.453-9.227-2.218a6.025,6.025,0,0,1-2.727,3.9,14.4,14.4,0,0,1-4.639,1.963,23.028,23.028,0,0,1-5.964.637,30.221,30.221,0,0,1-5.939-.663l-2.982,7.647c1.886.484,3.747.994,5.633,1.478-1.759.739-3.568,1.4-5.327,2.116-1.325.484-2.6,1.02-3.9,1.529-.357-.484-.663-1.02-.994-1.529-1.172-1.861-2.4-3.747-3.568-5.607-.025-.051-.1-.127-.076-.178,1.81.51,3.67.969,5.48,1.453,1.121-2.5,2.218-5.021,3.339-7.519A22.249,22.249,0,0,1,14.4,16.164a9.464,9.464,0,0,1-2.7-3.619,5.49,5.49,0,0,1-.331-2.727,4.953,4.953,0,0,1,.943-2.243C9.76,6.937,7.058,6.351,4.459,5.688A2.359,2.359,0,0,0,4.2,5.611c-.076,0-.2.153-.28.2-.459.408-.867.765-1.3,1.147-.178.153-.357.306-.535.433C1.425,6.3.763,5.178.1,4.082V4.057c2.268-.306,4.537-.586,6.831-.892-.535.51-1.147,1.02-1.708,1.478-.025.025-.1.076-.076.1L12.793,6.58a1.373,1.373,0,0,0,.255.076c.076,0,.255-.2.357-.306l.382-.306a14.968,14.968,0,0,1,6.754-2.523,28.782,28.782,0,0,1,9.737.331c.459-.918.892-1.861,1.325-2.8C30.584.82,29.539.616,28.545.361,30,.182,31.476,0,32.929-.2h.1c1.045.79,2.167,1.529,3.186,2.294-1.045-.229-2.065-.459-3.084-.688-.408.918-.79,1.886-1.2,2.8,4.359,1.223,8.182,3.008,10.756,6.041a6.741,6.741,0,0,1,1.733,3.874c2.982.714,5.99,1.427,8.972,2.116-.076-.714-.229-1.453-.306-2.192a.258.258,0,0,1,.178.1C54.671,15.2,56.073,16.164,57.449,17.132Zm-16.72-3.849a5.073,5.073,0,0,0-1.249-3.008,9.925,9.925,0,0,0-2.243-2.014,18.371,18.371,0,0,0-5.862-2.625c-.255.586-.484,1.2-.765,1.784a18.259,18.259,0,0,0-1.784-.433c.28-.586.535-1.172.816-1.759a23.81,23.81,0,0,0-5.174-.408,16.816,16.816,0,0,0-4.333.663A8.618,8.618,0,0,0,16.54,7.447c-.025.025-.076.051-.051.076,1.376.331,2.753.663,4.155.994-.1.127-.229.28-.331.433a3.265,3.265,0,0,0-.28.51c-1.427-.331-2.855-.688-4.282-1.02a3.6,3.6,0,0,0-.51,1.81,4.2,4.2,0,0,0,.433,1.886,7.69,7.69,0,0,0,2.09,2.574,17.006,17.006,0,0,0,6.117,3.161c.433-.943.867-1.912,1.3-2.855a13.464,13.464,0,0,0,2.167.535L26.2,18.458a23.374,23.374,0,0,0,4.384.459,21.235,21.235,0,0,0,4.384-.459,11.086,11.086,0,0,0,3.466-1.376A4.735,4.735,0,0,0,40.6,14.4c-1.529-.357-3.033-.739-4.562-1.1a2.289,2.289,0,0,0,.255-1.071C37.772,12.6,39.25,12.952,40.729,13.283Z" transform="translate(-0.1 0.2)"/>
      <path id="x_1_" class="cls-1" d="M92.793,29.467c.433.382.943.739,1.325,1.121-1.81.408-3.619.816-5.4,1.223a2.3,2.3,0,0,0,.229.255c.586.561,1.2,1.121,1.784,1.682.688.637,1.4,1.274,2.039,1.912-.79.2-1.555.433-2.345.637a4.363,4.363,0,0,1-.51-.459c-.51-.484-1.02-.994-1.5-1.478-.663-.663-1.351-1.325-2.039-1.963-2.065.484-4.155.943-6.219,1.427-.459-.484-.918-1.02-1.351-1.529,2.039-.433,4.078-.867,6.117-1.325.025-.051-.051-.076-.076-.1-.51-.51-1.071-1.02-1.58-1.529-.408-.408-.841-.816-1.249-1.249a3.083,3.083,0,0,1-.408-.408c.739-.127,1.453-.255,2.167-.382,1.172,1.045,2.294,2.141,3.441,3.186,1.606-.331,3.364-.714,5.021-1.071a2.012,2.012,0,0,1,.331-.076C92.64,29.314,92.717,29.416,92.793,29.467Z" transform="translate(-58.741 -20.291)"/>
      <path id="splash_1_" class="cls-1" d="M60.067,127.6v13.662H20.3v-2.37a2.657,2.657,0,0,0,1.708,1.2,3.189,3.189,0,0,0,2.37-.357,4.419,4.419,0,0,0,1.861-3.951,4.288,4.288,0,0,0-1.861-3.925,3.4,3.4,0,0,0-2.4-.331,2.874,2.874,0,0,0-1.682,1.223v-1.071H17.6v9.609H5.7V127.625c5.327,0,10.68.025,16.007,0h0c.357.484.637,1.045.994,1.529l3.9-1.529h0Q43.308,127.587,60.067,127.6Zm-4.486,8.564a9.072,9.072,0,0,0-.306-3.441,2.416,2.416,0,0,0-2.447-1.274,2.892,2.892,0,0,0-2.447,1.274v-3.976c-.867-.025-1.81,0-2.7,0-.025,3.7,0,7.443,0,11.164.867.025,1.81,0,2.7,0v-4.46a2.033,2.033,0,0,1,.586-1.733,1.3,1.3,0,0,1,1.682.2,3.947,3.947,0,0,1,.229,1.631c0,1.453-.025,2.931,0,4.359.892,0,1.81.025,2.7,0Zm-3.772,5.047c0-.025.051-.051.025-.076-.025.025-.025.051-.076.051,0-.025.051-.025.025-.051l-.025.025c0-.051-.025.025-.051,0s0-.025,0-.025c0,.025-.051,0-.051.025.025,0,0,.051,0,.051,0-.025-.051,0-.051-.051a.035.035,0,0,1-.051,0h-.025c.025,0,.025.025.025,0-.025,0,.051-.025.051,0-.025,0-.025.051,0,0,.025-.025.025.025.051,0,0-.025.025-.025,0-.051.025-.025.051.025.076,0v.025c-.025,0,0,.051,0,.025v-.025C51.783,141.211,51.783,141.185,51.809,141.211Zm-5.633-2.09a2.482,2.482,0,0,0,.714-2.065,1.95,1.95,0,0,0-1.121-1.657,16.637,16.637,0,0,0-2.09-.714c-.306-.1-.714-.178-1.071-.306-.306-.1-.739-.306-.79-.612a.631.631,0,0,1,.331-.663,1.8,1.8,0,0,1,1.453.025.863.863,0,0,1,.408.637c0,.025,0,.025.025.025h2.549c-.178-1.606-1.325-2.218-2.88-2.4-1.759-.2-3.314.178-4.053,1.147a2.612,2.612,0,0,0-.433,2.09,2.138,2.138,0,0,0,1.274,1.376,10.183,10.183,0,0,0,1.937.714c.331.1.714.178,1.02.306.306.1.688.28.765.561a.609.609,0,0,1-.076.433,1.34,1.34,0,0,1-1.2.459c-.79,0-1.325-.357-1.376-1.1h-2.7a3.015,3.015,0,0,0,2.88,2.7A5.32,5.32,0,0,0,46.176,139.121Zm-3.951-11.5h-.051c0-.025.025-.025,0-.025,0,.025-.025,0-.025.025,0,0,.025.025,0,.025s0-.025-.051-.025c0,.025,0,.025-.025.051,0,.025.025.025.025.051a.089.089,0,0,0-.051.025c.051.025-.025.051,0,.051a.025.025,0,0,1,.025-.025c0,.025.025,0,.025.025.025.025-.051.025,0,.051,0-.025.025,0,.025,0-.025,0,0,0,0-.025-.051-.025.025,0,0-.025H42.1c0-.025-.025-.025-.025-.051.051,0,.051-.025.025-.076a.025.025,0,0,0,.025-.025h0c0,.025.025.025.051.025.025-.051.051-.051.051-.051Zm-3.7,12.285v-.28c-.025-.051-.076-.076-.1-.1-.408-.382-.306-1.427-.306-2.192v-2.294A5.591,5.591,0,0,0,37.867,133a2.193,2.193,0,0,0-1.147-1.147,6.328,6.328,0,0,0-3.951-.153,2.818,2.818,0,0,0-2.09,2.5h2.5a1.059,1.059,0,0,1,.969-.892c.561-.076,1.223,0,1.4.433a1.024,1.024,0,0,1,.025.561c-.076.229-.433.331-.663.408-.841.255-1.886.306-2.676.586a2.369,2.369,0,0,0-1.759,2.549,2.26,2.26,0,0,0,2.039,2.294,3.625,3.625,0,0,0,1.861-.2,4.66,4.66,0,0,0,1.223-.816c.025-.025.025-.051.051-.051a7.806,7.806,0,0,0,.127.816C36.72,139.911,37.586,139.911,38.529,139.911Zm-8.9,0V128.721h-2.7v11.189Zm-15.446.127c1.478-.306,2.727-1.147,2.574-2.982a2.032,2.032,0,0,0-1.1-1.682,13.352,13.352,0,0,0-2.09-.714c-.331-.1-.714-.178-1.071-.306-.306-.1-.739-.306-.816-.586a.628.628,0,0,1,.433-.714,1.448,1.448,0,0,1,1.657.382,1.281,1.281,0,0,1,.127.331h2.6c-.178-1.58-1.376-2.217-2.931-2.37-1.784-.2-3.288.178-4.053,1.147a2.514,2.514,0,0,0-.408,2.09,2.2,2.2,0,0,0,1.274,1.376,8.705,8.705,0,0,0,1.937.714c.331.1.688.178,1.02.306.382.153.918.382.714.892-.229.612-1.5.714-2.116.382a1.109,1.109,0,0,1-.535-.892h-2.7c.178,1.682,1.325,2.447,2.88,2.7A8.032,8.032,0,0,0,14.188,140.038Zm18.989-3.186a.84.84,0,0,0-.2.561.911.911,0,0,0,.918.969,1.425,1.425,0,0,0,1.631-1.351v-1.02C34.884,136.5,33.686,136.292,33.177,136.852Zm-11.5-3.237a1.319,1.319,0,0,0-1.02.561,3.421,3.421,0,0,0-.408,1.937,2.194,2.194,0,0,0,.688,1.682,1.624,1.624,0,0,0,1.453.178,1.5,1.5,0,0,0,.867-.969,3.493,3.493,0,0,0-.357-2.957A1.3,1.3,0,0,0,21.681,133.615Z" transform="translate(-4.273 -95.026)"/>
      <path id="damage_1_" class="cls-1" d="M57.665,184.845a4.932,4.932,0,0,1,.994,3.594H53.306a1.755,1.755,0,0,0,.561,1.478,1.7,1.7,0,0,0,1.606.076,1.271,1.271,0,0,0,.586-.714h2.5a3.508,3.508,0,0,1-3.008,2.676,5.146,5.146,0,0,1-2.523-.2,3.624,3.624,0,0,1-2.37-3.339,4.468,4.468,0,0,1,1.5-4.129,3.788,3.788,0,0,1,2.167-.714A3.946,3.946,0,0,1,57.665,184.845Zm-1.478,2.116c-.051-.994-.561-1.682-1.606-1.606-.892.076-1.223.739-1.325,1.606C54.2,186.96,55.218,186.986,56.187,186.96Zm-6.5-3.11v7.315a6.47,6.47,0,0,1-.178,1.657c-.408,1.4-1.682,2.039-3.39,2.141h-.841c-1.886-.1-3.186-.765-3.415-2.523h2.6a2.368,2.368,0,0,1,.127.255,1.754,1.754,0,0,0,1.963.306c.714-.331.663-1.325.637-2.37a2.893,2.893,0,0,1-1.606,1.147,3.444,3.444,0,0,1-2.345-.28A4.742,4.742,0,0,1,43.289,184a3.425,3.425,0,0,1,2.345-.255,2.9,2.9,0,0,1,1.657,1.147v-1.02C48.056,183.851,48.871,183.851,49.687,183.851Zm-2.651,4.766a3.41,3.41,0,0,0-.2-2.268,1.342,1.342,0,0,0-1.3-.663,1.455,1.455,0,0,0-.79.255,2.552,2.552,0,0,0-.637,2.345c.1.841.535,1.58,1.453,1.58A1.587,1.587,0,0,0,47.036,188.617Zm-6.143,2.88v.306H38.243a7.31,7.31,0,0,1-.127-.79c-.051,0-.1.076-.127.1a3.392,3.392,0,0,1-2.906.892,2.118,2.118,0,0,1-1.963-2.192,2.33,2.33,0,0,1,1.708-2.472,15.362,15.362,0,0,1,1.708-.382,5.235,5.235,0,0,0,.867-.178c.229-.076.561-.178.637-.382a.764.764,0,0,0-.051-.586c-.178-.382-.841-.459-1.351-.357a1,1,0,0,0-.892.841h-2.4c.255-1.81,1.478-2.549,3.441-2.651s3.39.459,3.67,2.09a19.925,19.925,0,0,1,.076,2.8v1.427C40.486,190.631,40.511,191.242,40.894,191.5Zm-3.11-1.733a2.839,2.839,0,0,0,.255-1.682h-.025c-.586.382-1.682.28-2.167.714a.746.746,0,0,0-.255.586.875.875,0,0,0,.841.943A1.445,1.445,0,0,0,37.784,189.764Zm-8.233-6.117a2.51,2.51,0,0,0-2.319,1.274,2.319,2.319,0,0,0-2.472-1.274,2.569,2.569,0,0,0-2.167,1.249v-1.071h-2.5v7.952h2.549v-3.339c0-1.147-.051-2.294.663-2.676a1.339,1.339,0,0,1,1.351.127c.484.484.331,1.81.331,2.778V191.8h2.294V188.8c0-1.478-.178-3.186,1.274-3.161a.924.924,0,0,1,.918.51,3.211,3.211,0,0,1,.178,1.274V191.8H32.2v-3.594A8.45,8.45,0,0,0,31.9,184.9,2.324,2.324,0,0,0,29.551,183.647Zm-10.4,7.85v.306H16.5a3.659,3.659,0,0,1-.127-.79,5.878,5.878,0,0,1-.586.459,3.466,3.466,0,0,1-2.5.561,2.139,2.139,0,0,1-1.937-2.217,2.306,2.306,0,0,1,1.708-2.447c.765-.255,1.759-.306,2.574-.561.229-.076.561-.2.637-.408a.987.987,0,0,0-.051-.561c-.178-.331-.663-.408-1.147-.382a1.063,1.063,0,0,0-1.1.867h-2.4c.255-1.81,1.478-2.549,3.441-2.651s3.441.459,3.67,2.116a19.924,19.924,0,0,1,.076,2.8v1.453C18.769,190.656,18.795,191.242,19.152,191.5Zm-3.161-1.657c.357-.408.306-1.02.306-1.784h-.025a4.878,4.878,0,0,1-1.172.357c-.484.1-1.02.229-1.2.612a.963.963,0,0,0,.408,1.2A1.518,1.518,0,0,0,15.991,189.841ZM10.384,181.2v10.578h-2.6v-.994a2.807,2.807,0,0,1-1.606,1.147,3.259,3.259,0,0,1-2.294-.331A4.1,4.1,0,0,1,2.1,187.8,4.253,4.253,0,0,1,3.859,184a3.109,3.109,0,0,1,2.294-.331,2.549,2.549,0,0,1,1.657,1.147V181.2Zm-2.957,8.182A3.341,3.341,0,0,0,7.4,186.17a1.357,1.357,0,0,0-1.223-.51,1.21,1.21,0,0,0-.816.331,2.058,2.058,0,0,0-.561,1.351c-.127,1.249.229,2.4,1.274,2.549A1.313,1.313,0,0,0,7.427,189.382Z" transform="translate(-1.59 -134.964)"/>
    </g>
    <g id="Group_1148" data-name="Group 1148" transform="translate(1195.473 9042.371)">
      <g id="Group_1147" data-name="Group 1147" transform="translate(0 0)">
        <path id="Path_1151" data-name="Path 1151" class="cls-1" d="M409.756,184.8a1.653,1.653,0,0,1-1.721,1.628,1.618,1.618,0,1,1,0-3.228A1.63,1.63,0,0,1,409.756,184.8Zm-3.022,0a1.3,1.3,0,0,0,2.6.014,1.3,1.3,0,0,0-2.6-.014Zm1.032.843h-.389v-1.614a3.738,3.738,0,0,1,.643-.043,1.064,1.064,0,0,1,.584.114.458.458,0,0,1,.165.357.427.427,0,0,1-.344.371v.014a.488.488,0,0,1,.314.386.992.992,0,0,0,.12.4h-.419a1.869,1.869,0,0,1-.135-.386c-.03-.171-.135-.257-.344-.257h-.18v.657Zm.015-.914h.18c.209,0,.389-.071.389-.229s-.12-.243-.359-.243c-.1,0-.18.014-.209.014Z" transform="translate(-406.3 -183.199)"/>
      </g>
    </g>
  </g>
</svg>
